<?xml version="1.0" standalone="no"?>
<!DOCTYPE svg PUBLIC "-//W3C//DTD SVG 1.1//EN" "http://www.w3.org/Graphics/SVG/1.1/DTD/svg11.dtd" >
<svg xmlns="http://www.w3.org/2000/svg">
<metadata>
Created by FontForge 20120731 at Tue Dec 13 15:52:38 2016
 By admin
</metadata>
<defs>
<font id="iconfont" horiz-adv-x="1024" >
  <font-face 
    font-family="iconfont"
    font-weight="500"
    font-stretch="normal"
    units-per-em="1024"
    panose-1="2 0 6 3 0 0 0 0 0 0"
    ascent="896"
    descent="-128"
    x-height="792"
    bbox="6.1 -111 1017.9 878"
    underline-thickness="0"
    underline-position="0"
    unicode-range="U+0078-E69E"
  />
<missing-glyph 
 />
    <glyph glyph-name=".notdef" 
 />
    <glyph glyph-name=".notdef" 
 />
    <glyph glyph-name=".null" horiz-adv-x="0" 
 />
    <glyph glyph-name="nonmarkingreturn" horiz-adv-x="341" 
 />
    <glyph glyph-name="x" unicode="x" horiz-adv-x="1001" 
d="M281 543q-27 -1 -53 -1h-83q-18 0 -36.5 -6t-32.5 -18.5t-23 -32t-9 -45.5v-76h912v41q0 16 -0.5 30t-0.5 18q0 13 -5 29t-17 29.5t-31.5 22.5t-49.5 9h-133v-97h-438v97zM955 310v-52q0 -23 0.5 -52t0.5 -58t-10.5 -47.5t-26 -30t-33 -16t-31.5 -4.5q-14 -1 -29.5 -0.5
t-29.5 0.5h-32l-45 128h-439l-44 -128h-29h-34q-20 0 -45 1q-25 0 -41 9.5t-25.5 23t-13.5 29.5t-4 30v167h911zM163 247q-12 0 -21 -8.5t-9 -21.5t9 -21.5t21 -8.5q13 0 22 8.5t9 21.5t-9 21.5t-22 8.5zM316 123q-8 -26 -14 -48q-5 -19 -10.5 -37t-7.5 -25t-3 -15t1 -14.5
t9.5 -10.5t21.5 -4h37h67h81h80h64h36q23 0 34 12t2 38q-5 13 -9.5 30.5t-9.5 34.5q-5 19 -11 39h-368zM336 498v228q0 11 2.5 23t10 21.5t20.5 15.5t34 6h188q31 0 51.5 -14.5t20.5 -52.5v-227h-327z" />
    <glyph glyph-name="iconinstagram" unicode="&#xe637;" 
d="M511.5 639q-105.5 0 -180 -74.5t-74.5 -180.5t74.5 -180.5t180 -74.5t180.5 74.5t75 180.5t-75 180.5t-180.5 74.5zM512 221q-68 0 -115.5 47.5t-47.5 115.5t47.5 115.5t115.5 47.5t115.5 -47.5t47.5 -115.5t-47.5 -115.5t-115.5 -47.5zM721 874h-421
q-117 0 -199.5 -82.5t-82.5 -199.5v-421q0 -117 82.5 -199.5t199.5 -82.5h421q117 0 199.5 82.5t82.5 199.5v421q0 117 -82.5 199.5t-199.5 82.5zM912 170q0 -77 -54.5 -131.5t-131.5 -54.5h-428q-77 0 -131.5 54.5t-54.5 131.5v428q0 77 54.5 131.5t131.5 54.5h428
q77 0 131.5 -54.5t54.5 -131.5v-428zM714 647.5q0 -24.5 17.5 -42t42 -17.5t42 17.5t17.5 42t-17.5 42t-42 17.5t-42 -17.5t-17.5 -42z" />
    <glyph glyph-name="iconunshow" unicode="&#xe600;" 
d="M545.5 261q-63.5 0 -108.5 45t-45 108.5t45 108.5t108.5 45t108.5 -45t45 -108.5t-45 -108.5t-108.5 -45zM546 537q-51 0 -87 -36t-36 -86.5t36 -86.5t87 -36t87 36t36 86.5t-36 86.5t-87 36zM545.5 138q-98.5 0 -186.5 42q-71 34 -132 92q-69 67 -103 134q-4 6 0 13
q34 68 103 136q61 59 132 93q88 43 186.5 43t188.5 -42q71 -34 133 -93q71 -67 107 -134q4 -7 0 -14q-36 -68 -107 -135q-62 -59 -133 -92q-90 -43 -188.5 -43zM155 413q37 -64 94 -119q58 -55 124 -86q82 -39 173 -39t175 39q66 32 125 87.5t97 119.5q-39 64 -98 120
q-58 55 -125 86q-83 39 -174 39t-173 -39q-66 -32 -124 -87q-57 -56 -94 -121zM63.5 -77q-6.5 0 -10.5 5q-11 11 0 22l890 890q11 11 22 0t0 -22l-890 -890q-5 -5 -11.5 -5z" />
    <glyph glyph-name="iconshow" unicode="&#xe601;" 
d="M512 231q-63 0 -108 45t-45 108t45 108t108 45t108 -45t45 -108t-45 -108t-108 -45zM512 507q-51 0 -87 -36t-36 -87t36 -87t87 -36t87 36t36 87t-36 87t-87 36zM509 108q-98 0 -187 42q-71 33 -131 91q-70 67 -104 134q-4 7 0 14q34 68 103 135q61 60 132 94
q88 42 186.5 42t188.5 -42q71 -34 133 -92q71 -67 107 -135q4 -7 0 -14q-36 -68 -107 -135q-62 -58 -133 -92q-90 -42 -188 -42zM118 382q37 -64 95 -119q57 -55 123 -86q82 -39 173 -39t175 40q67 31 125.5 86.5t96.5 119.5q-39 64 -98 120q-58 55 -125 87q-83 39 -174 39
t-173 -40q-66 -31 -123 -87q-58 -56 -95 -121z" />
    <glyph glyph-name="iconshare" unicode="&#xe602;" horiz-adv-x="1030" 
d="M891 -60l-874 1l1 870h680v-29h-651l-1 -812h815v424h30v-454zM328 213l-29 2q1 15 4.5 39t24.5 85t53 112q65 103 168 158q128 70 308 62l-2 -29q-171 7 -292 -58q-96 -52 -157 -148q-31 -49 -50.5 -107t-23 -80.5t-4.5 -35.5zM839 493l-20 21l152 144l-152 144l20 22
l175 -166z" />
    <glyph glyph-name="icongag" unicode="&#xe603;" 
d="M645 -76h-4q-5 0 -8 3l-283 242h-185q-28 0 -43.5 17t-14.5 42v313v1q1 14 9 28q16 29 52 29h182l283 242q3 3 8 3q21 2 36 -11q13 -12 13 -33v-832q0 -21 -13 -33q-13 -11 -32 -11zM137 226q0 -12 7 -19t21 -7h190q6 0 10 -4l283 -242q5 1 8 4t3 10v832q0 7 -3 10t-8 4
l-283 -242q-4 -4 -10 -4h-187q-18 0 -26 -14q-3 -6 -4 -14v-313zM66.5 -77q-6.5 0 -10.5 5q-11 11 0 22l890 890q11 11 22 0t0 -22l-890 -890q-5 -5 -11.5 -5z" />
    <glyph glyph-name="iconhamburger" unicode="&#xe604;" 
d="M893 -30h-768q-6 0 -10.5 4.5t-4.5 10.5t4.5 10.5t10.5 4.5h768q7 0 11.5 -4.5t4.5 -10.5t-4.5 -10.5t-11.5 -4.5zM899 368h-768q-7 0 -11.5 4.5t-4.5 11t4.5 11t11.5 4.5h768q6 0 10.5 -4.5t4.5 -11t-4.5 -11t-10.5 -4.5zM893 768h-768q-6 0 -10.5 4.5t-4.5 10.5
t4.5 10.5t10.5 4.5h768q7 0 11.5 -4.5t4.5 -10.5t-4.5 -10.5t-11.5 -4.5z" />
    <glyph glyph-name="iconheart" unicode="&#xe605;" 
d="M508.5 -14q-13.5 0 -23.5 9q-181 182 -349 351q-67 68 -81 151q-13 75 19.5 144.5t98.5 107.5q58 33 123 33q96 0 168 -68q21 -19 44 -19q18 0 33 10q10 6 29 20q35 24 52 32q50 25 105 25q91 0 160.5 -59.5t82.5 -149.5q17 -122 -70 -212q-84 -87 -301 -300
q-56 -55 -68 -66q-9 -9 -22.5 -9zM296 752q-57 0 -108 -30q-57 -33 -85.5 -94t-17.5 -126q13 -73 73 -134q169 -170 349 -351q1 -1 1.5 -1t1.5 1q11 11 67 66q217 213 301 299q39 40 54 86t7 101q-10 78 -71 130.5t-141 52.5q-48 0 -91 -22q-15 -8 -48 -31q-20 -13 -30 -20
q-23 -15 -50 -15q-35 0 -65 28q-63 60 -147 60z" />
    <glyph glyph-name="iconlabel" unicode="&#xe606;" 
d="M741.5 507q-44.5 0 -75.5 31.5t-31 76t31 75.5q41 41 98 29q6 -2 9.5 -7.5t2.5 -12t-6.5 -10t-12.5 -2.5q-40 9 -68 -20q-22 -22 -22 -53t21.5 -53t53 -22t53.5 22q28 29 20 69q-2 6 2 11.5t10 7t12 -2t7 -10.5q12 -56 -29 -97q-31 -32 -75.5 -32zM400.5 -77
q-6.5 0 -11.5 4l-334 334q-4 5 -4 11.5t4 11.5l502 501q2 3 6 4l190 56q9 2 15 -4l45 -45q11 -11 0 -22t-22 0l-38 38l-177 -52l-487 -487l312 -312l487 487l52 177l-38 38q-11 11 0 22t22 0l45 -45q6 -6 4 -15l-56 -190q-1 -4 -4 -6l-501 -502q-5 -4 -11.5 -4zM742.5 599
q-6.5 0 -11.5 4q-11 12 0 23l215 214q11 11 22 0t0 -22l-214 -215q-5 -4 -11.5 -4z" />
    <glyph glyph-name="iconlandmark" unicode="&#xe607;" 
d="M512 336q-89 0 -152 63.5t-63 152.5t63 152t152 63t152 -63t63 -152t-63 -152.5t-152 -63.5zM512 736q-76 0 -130.5 -54t-54.5 -130t54.5 -130.5t130.5 -54.5t130 54.5t54 130.5t-54 130t-130 54zM517 -91q-8 0 -12 5q-83 96 -165 218q-72 108 -114 197q-52 114 -52 192
q0 140 99 239t239 99t239 -99t99 -239q0 -81 -51 -195q-40 -89 -111 -196q-80 -122 -160 -216q-4 -5 -11 -5v0zM512 829q-127 0 -217 -90.5t-90 -217.5q0 -132 160 -371q70 -104 151 -202q80 96 147 199q156 238 156 374q0 127 -90 217.5t-217 90.5z" />
    <glyph glyph-name="iconsetup" unicode="&#xe608;" 
d="M512 230q-64 0 -109 45t-45 109t45 109t109 45t109 -45t45 -109t-45 -109t-109 -45zM512 507q-51 0 -87 -36t-36 -87t36 -87t87 -36t87 36t36 87t-36 87t-87 36zM549 -107h-74q-20 0 -33.5 13.5t-13.5 32.5v85q-59 14 -111 47l-60 -61q-14 -13 -33 -13t-33 13l-53 53
q-13 14 -13 33t13 33l61 61q-31 51 -44 110h-88q-19 0 -32.5 13.5t-13.5 33.5v74q0 20 13.5 33.5t32.5 13.5h89q14 57 46 108l-64 63q-13 14 -13 33t13 33l53 53q14 13 33 13t33 -13l64 -64q50 30 107 43v92q0 19 13.5 32.5t33.5 13.5h74q20 0 33.5 -13.5t13.5 -32.5v-92
q57 -13 107 -43l64 64q14 13 33 13t33 -13l53 -53q13 -14 13 -33t-13 -33l-64 -63q32 -51 46 -108h89q19 0 32.5 -13.5t13.5 -33.5v-74q0 -20 -13.5 -33.5t-32.5 -13.5h-88q-13 -59 -44 -110l61 -61q13 -14 13 -33t-13 -33l-53 -53q-14 -13 -33 -13t-33 13l-60 61
q-52 -33 -111 -47v-85q0 -19 -13.5 -32.5t-33.5 -13.5zM313 110l11 -7q56 -38 122 -51l13 -3v-110q0 -6 4.5 -10.5t11.5 -4.5h74q7 0 11.5 4.5t4.5 10.5v110l13 3q66 13 122 51l11 7l78 -78q4 -5 10.5 -5t11.5 5l53 53q11 11 0 22l-79 79l7 10q37 56 50 122l2 13h113
q6 0 10.5 4.5t4.5 11.5v74q0 7 -4.5 11.5t-10.5 4.5h-114l-2 13q-14 64 -51 119l-7 11l81 81q11 11 0 22l-53 53q-5 5 -11.5 5t-10.5 -5l-82 -82l-11 7q-54 36 -118 49l-13 2v117q0 6 -4.5 10.5t-11.5 4.5h-74q-7 0 -11.5 -4.5t-4.5 -10.5v-117l-13 -2q-64 -13 -118 -49
l-11 -7l-82 82q-4 5 -10.5 5t-11.5 -5l-53 -53q-11 -11 0 -22l81 -81l-7 -11q-37 -55 -51 -119l-2 -13h-114q-6 0 -10.5 -4.5t-4.5 -11.5v-74q0 -7 4.5 -11.5t10.5 -4.5h113l2 -13q13 -66 50 -122l7 -10l-79 -79q-11 -11 0 -22l53 -53q5 -5 11.5 -5t10.5 5z" />
    <glyph glyph-name="iconspeaker" unicode="&#xe60a;" 
d="M590 -76h-4q-5 0 -9 3l-282 242h-185q-28 0 -44 17t-14 42v313v1q1 14 9 28q16 29 52 29h182l282 242q4 3 9 3q21 2 36 -11q13 -12 13 -33v-832q0 -21 -13 -33q-13 -11 -32 -11zM82 226q0 -12 7 -19q6 -7 21 -7h190q6 0 10 -4l283 -242q5 1 8 4t3 10v832q0 7 -3 10t-8 4
l-283 -242q-4 -4 -10 -4h-187q-18 0 -26 -14q-4 -6 -5 -14v-313v-1zM728 168q-7 0 -12 5q-11 12 1 22q33 30 52 80.5t19 106.5q0 59 -19 110t-52 80q-12 10 -1.5 22t22.5 1q38 -33 59 -89q22 -57 22 -124q0 -64 -22 -121q-22 -55 -59 -89q-4 -4 -10 -4zM865 77q-6 0 -11 5
q-11 10 0 21q40 39 64 117t24 163q0 86 -24.5 164.5t-63.5 117.5q-11 11 0 21.5t22 0.5q43 -43 69.5 -127t26.5 -177q0 -90 -25 -172q-26 -85 -71 -130q-5 -4 -11 -4z" />
    <glyph glyph-name="iconuser" unicode="&#xe60b;" 
d="M512 387q-102 0 -174 72t-72 173.5t72 173.5t174 72t174 -72t72 -173.5t-72 -173.5t-174 -72zM512 848q-89 0 -152 -63.5t-63 -152.5t63 -152t152 -63t152 63t63 152t-63 152.5t-152 63.5zM125 -110h-4q-6 2 -9 7.5t-2 11.5q32 110 95 293q0 1 1 1q29 67 77 109
q54 45 115 45h228q62 0 116 -46q51 -42 77 -109v0q60 -175 95 -293q1 -6 -2 -11.5t-9 -7t-11.5 1.5t-7.5 9q-34 115 -94 291q-23 58 -68 96q-46 38 -96 38h-228q-50 0 -95 -38q-43 -36 -69 -97q-63 -183 -94 -290q-3 -11 -15 -11z" />
    <glyph glyph-name="iconbook" unicode="&#xe60c;" 
d="M865 -76h-706q-7 0 -11.5 4.5t-4.5 10.5v784q0 6 4.5 10.5t11.5 4.5h201q7 0 11.5 -4.5t4.5 -11t-4.5 -11t-11.5 -4.5h-186v-753h676v753h-183q-6 0 -10.5 4.5t-4.5 11t4.5 11t10.5 4.5h198q7 0 11.5 -4.5t4.5 -10.5v-784q0 -6 -4.5 -10.5t-11.5 -4.5zM681 631h-338
q-8 0 -12.5 6t-2.5 13l30 122q3 12 15 12h46v45q0 6 4.5 10.5t10.5 4.5h155q7 0 11.5 -4.5t4.5 -10.5v-45h45q12 0 15 -12l30 -122q2 -7 -2.5 -13t-11.5 -6zM363 662h298l-23 91h-49q-6 0 -10.5 4.5t-4.5 10.5v46h-124v-46q0 -6 -4.5 -10.5t-11.5 -4.5h-49z" />
    <glyph glyph-name="iconright" unicode="&#xe60e;" 
d="M297 -76q-6 0 -10 4q-12 10 -1 21l420 450l-389 420q-11 11 0.5 21.5t21.5 -0.5l399 -430q10 -11 0 -21l-430 -461q-4 -4 -11 -4z" />
    <glyph glyph-name="icontalk" unicode="&#xe60f;" 
d="M236 -76q-3 0 -6 1q-10 4 -10 14v261h-76q-32 0 -54.5 22.5t-22.5 54.5v491q0 31 22.5 53.5t54.5 22.5h736q32 0 54.5 -22.5t22.5 -53.5v-491q0 -32 -22.5 -54.5t-54.5 -22.5h-356l-278 -272q-4 -4 -10 -4zM144 814q-19 0 -32.5 -13.5t-13.5 -32.5v-491q0 -19 13.5 -32.5
t32.5 -13.5h92q6 0 10.5 -4.5t4.5 -11.5v-240l256 251q5 5 11 5h362q19 0 32.5 13.5t13.5 32.5v491q0 19 -13.5 32.5t-32.5 13.5h-736zM512 522zM466 522q0 19 13.5 32.5t32.5 13.5t32.5 -13.5t13.5 -32.5t-13.5 -32.5t-32.5 -13.5t-32.5 13.5t-13.5 32.5zM297 522zM251 522
q0 19 13.5 32.5t32.5 13.5t32.5 -13.5t13.5 -32.5t-13.5 -32.5t-32.5 -13.5t-32.5 13.5t-13.5 32.5zM727 522zM681 522q0 19 13.5 32.5t32.5 13.5t32.5 -13.5t13.5 -32.5t-13.5 -32.5t-32.5 -13.5t-32.5 13.5t-13.5 32.5z" />
    <glyph glyph-name="iconticket" unicode="&#xe610;" 
d="M389.5 -107q-6.5 0 -11.5 5l-92 92q-10 11 0 22q16 15 21.5 28.5t5.5 36.5q0 47 -30.5 77.5t-77.5 30.5q-23 0 -36.5 -5.5t-28.5 -21.5q-11 -10 -22 0l-92 92q-5 5 -5 11.5t5 10.5l598 598q11 11 22 0l92 -92q4 -4 4 -10.5t-4 -11.5q-16 -15 -21.5 -28.5t-5.5 -36.5
q0 -47 30.5 -77.5t77.5 -30.5q23 0 36.5 5.5t28.5 21.5q5 4 11.5 4t10.5 -4l92 -92q11 -11 0 -22l-598 -598q-4 -5 -10.5 -5zM319 1l70 -71l577 577l-71 70q-30 -24 -76 -24q-59 0 -98.5 39.5t-39.5 98.5q0 46 24 76l-70 71l-577 -577l71 -70q30 24 76 24q59 0 98.5 -39.5
t39.5 -98.5q0 -46 -24 -76zM481.5 568q-6.5 0 -11.5 4l-61 62q-11 11 0 21.5t22 0.5l61 -62q11 -11 0 -22q-4 -4 -10.5 -4zM772.5 277q-6.5 0 -10.5 4l-62 61q-10 11 0.5 22t21.5 0l62 -61q10 -11 0 -22q-5 -4 -11.5 -4zM578 468q-6 0 -11 4l-51 52q-11 11 0 21.5t21 0.5
l52 -52q11 -11 0 -22q-5 -4 -11 -4zM667.5 378q-6.5 0 -10.5 5l-51 51q-11 11 -0.5 22t21.5 0l52 -52q11 -11 0 -21q-5 -5 -11.5 -5z" />
    <glyph glyph-name="iconcaveatcircle" unicode="&#xe611;" 
d="M512 -107q-100 0 -191 38q-88 38 -156 106t-106 156q-38 91 -38 191t38 191q38 88 106 156t156 106q91 38 191 38t191 -38q88 -38 156 -106t106 -156q38 -91 38 -191t-38 -191q-38 -88 -106 -156t-156 -106q-91 -38 -191 -38zM512 844q-94 0 -179 -36
q-83 -35 -146.5 -98.5t-98.5 -146.5q-36 -85 -36 -179t36 -179q35 -83 98.5 -146.5t146.5 -98.5q85 -36 179 -36t179 36q83 35 146.5 98.5t98.5 146.5q36 85 36 179t-36 179q-35 83 -98.5 146.5t-146.5 98.5q-85 36 -179 36zM518 231q-13 0 -22 8.5t-9 21.5v415q0 12 9 21
t22 9t22 -9t9 -21v-415q0 -13 -9 -21.5t-22 -8.5zM518 118zM478 117.5q0 16.5 12 28.5t28.5 12t28 -12t11.5 -28.5t-11.5 -28t-28 -11.5t-28.5 11.5t-12 28z" />
    <glyph glyph-name="iconaddcircle" unicode="&#xe612;" 
d="M512 -107q-100 0 -191 38q-88 38 -156 106t-106 156q-38 91 -38 191t38 191q38 88 106 156t156 106q91 38 191 38t191 -38q88 -38 156 -106t106 -156q38 -91 38 -191t-38 -191q-38 -88 -106 -156t-156 -106q-91 -38 -191 -38zM512 844q-94 0 -179 -36
q-83 -35 -146.5 -98.5t-98.5 -146.5q-36 -85 -36 -179t36 -179q35 -83 98.5 -146.5t146.5 -98.5q85 -36 179 -36t179 36q83 35 146.5 98.5t98.5 146.5q36 85 36 179t-36 179q-35 83 -98.5 146.5t-146.5 98.5q-85 36 -179 36zM804 369h-584q-6 0 -10.5 4.5t-4.5 10.5
t4.5 10.5t10.5 4.5h584q6 0 10.5 -4.5t4.5 -10.5t-4.5 -10.5t-10.5 -4.5zM512 77q-6 0 -10.5 4.5t-4.5 10.5v584q0 6 4.5 10.5t10.5 4.5t10.5 -4.5t4.5 -10.5v-584q0 -6 -4.5 -10.5t-10.5 -4.5z" />
    <glyph glyph-name="iconadd" unicode="&#xe613;" 
d="M512 875q-100 0 -191 -39t-156.5 -104.5t-104.5 -156.5t-39 -191t39 -191t104.5 -156.5t156.5 -104.5t191 -39t191 39t156.5 104.5t104.5 156.5t39 191t-39 191t-104.5 156.5t-156.5 104.5t-191 39zM804 372h-277v-277q0 -6 -4.5 -10.5t-10.5 -4.5t-10.5 4.5t-4.5 10.5
v277h-277q-6 0 -10.5 4.5t-4.5 10.5t4.5 10.5t10.5 4.5h277v277q0 6 4.5 10.5t10.5 4.5t10.5 -4.5t4.5 -10.5v-277h277q6 0 10.5 -4.5t4.5 -10.5t-4.5 -10.5t-10.5 -4.5z" />
    <glyph glyph-name="iconcaveat" unicode="&#xe614;" 
d="M512 875q-100 0 -191 -39t-156.5 -104.5t-104.5 -156.5t-39 -191t39 -191t104.5 -156.5t156.5 -104.5t191 -39t191 39t156.5 104.5t104.5 156.5t39 191t-39 191t-104.5 156.5t-156.5 104.5t-191 39zM487 676q0 12 9 21t22 9t22 -9t9 -21v-415q0 -13 -9 -21.5t-22 -8.5
t-22 8.5t-9 21.5v415zM518.5 78q-16.5 0 -28.5 11.5t-12 28t12 28.5t28.5 12t28 -12t11.5 -28.5t-11.5 -28t-28 -11.5z" />
    <glyph glyph-name="iconcheckcircle" unicode="&#xe615;" 
d="M512 -107q-100 0 -191 38q-88 38 -156 106t-106 156q-38 91 -38 191t38 191q38 88 106 156t156 106q91 38 191 38t191 -38q88 -38 156 -106t106 -156q38 -91 38 -191t-38 -191q-38 -88 -106 -156t-156 -106q-91 -38 -191 -38zM512 844q-94 0 -179 -36
q-83 -35 -146.5 -98.5t-98.5 -146.5q-36 -85 -36 -179t36 -179q35 -83 98.5 -146.5t146.5 -98.5q85 -36 179 -36t179 36q83 35 146.5 98.5t98.5 146.5q36 85 36 179t-36 179q-35 83 -98.5 146.5t-146.5 98.5q-85 36 -179 36zM432 138q-6 0 -10 4l-212 184q-11 10 -1 22t21 2
l200 -174l362 448q9 12 21 2.5t3 -21.5l-372 -461q-4 -5 -10 -6h-2z" />
    <glyph glyph-name="iconcheck" unicode="&#xe616;" 
d="M512 875q-100 0 -191 -39t-156.5 -104.5t-104.5 -156.5t-39 -191t39 -191t104.5 -156.5t156.5 -104.5t191 -39t191 39t156.5 104.5t104.5 156.5t39 191t-39 191t-104.5 156.5t-156.5 104.5t-191 39zM816 605l-372 -461q-4 -5 -10 -6h-2q-6 0 -10 4l-212 184q-11 10 -1 22
t21 2l200 -174l362 448q9 12 21 2.5t3 -21.5z" />
    <glyph glyph-name="iconcross" unicode="&#xe617;" 
d="M67 851l912 -912l-22 -22l-912 912zM957 851l22 -22l-912 -912l-22 22z" />
    <glyph glyph-name="icondelete" unicode="&#xe618;" 
d="M512 875q-100 0 -191 -39t-156.5 -104.5t-104.5 -156.5t-39 -191t39 -191t104.5 -156.5t156.5 -104.5t191 -39t191 39t156.5 104.5t104.5 156.5t39 191t-39 191t-104.5 156.5t-156.5 104.5t-191 39zM497 372h-277q-6 0 -10.5 4.5t-4.5 10.5t4.5 10.5t10.5 4.5h277h30h277
q6 0 10.5 -4.5t4.5 -10.5t-4.5 -10.5t-10.5 -4.5h-277h-30z" />
    <glyph glyph-name="iconfollow" unicode="&#xe619;" 
d="M450.5 387q-101.5 0 -173.5 72t-72 173.5t72 173.5t173.5 72t173.5 -72t72 -173.5t-72 -173.5t-173.5 -72zM451 848q-89 0 -152.5 -63.5t-63.5 -152.5t63.5 -152t152.5 -63t152 63t63 152t-63 152.5t-152 63.5zM64 -110h-5q-6 2 -9 7.5t-1 11.5q32 110 95 293v1
q29 67 78 109q53 45 115 45h227q63 0 119 -47q11 -10 1 -22t-21 -2q-47 40 -99 40h-227q-50 0 -95 -38q-43 -36 -69 -97q-63 -183 -94 -290q-4 -11 -15 -11zM960 86h-368q-7 0 -11.5 4.5t-4.5 11t4.5 11t11.5 4.5h368q7 0 11.5 -4.5t4.5 -11t-4.5 -11t-11.5 -4.5zM776 -101
q-6 0 -10.5 4.5t-4.5 10.5v372q0 6 4.5 10.5t10.5 4.5t10.5 -4.5t4.5 -10.5v-372q0 -6 -4.5 -10.5t-10.5 -4.5z" />
    <glyph glyph-name="iconpassword" unicode="&#xe61a;" 
d="M834 -107h-644q-32 0 -54.5 22.5t-22.5 54.5v463q0 32 22.5 54.5t54.5 22.5h644q32 0 54.5 -22.5t22.5 -54.5v-463q0 -32 -22.5 -54.5t-54.5 -22.5zM190 479q-19 0 -32.5 -13.5t-13.5 -32.5v-463q0 -19 13.5 -32.5t32.5 -13.5h644q19 0 32.5 13.5t13.5 32.5v463
q0 19 -13.5 32.5t-32.5 13.5h-644zM803.5 537q-6.5 0 -11 4.5t-4.5 11.5q0 53 -22 106t-63 96t-91.5 66t-102.5 23q-53 0 -104 -24q-48 -23 -87 -65t-60.5 -95t-21.5 -107q0 -7 -4.5 -11.5t-11 -4.5t-11 4.5t-4.5 11.5q0 60 23.5 118t66.5 105q43 46 97 72q57 27 117 27
q58 0 114.5 -26t101.5 -73t69.5 -105.5t24.5 -117.5q0 -7 -4.5 -11.5t-11 -4.5zM512 46q-17 0 -28.5 12t-11.5 28v90q-25 11 -39.5 34t-14.5 50q0 39 27.5 66t66 27t66 -27t27.5 -66q0 -27 -14.5 -49.5t-39.5 -34.5l1 -90q0 -16 -11.5 -28t-28.5 -12zM511.5 323
q-25.5 0 -44 -18.5t-18.5 -44.5q0 -20 11.5 -36.5t31.5 -22.5l10 -4l1 -111q0 -9 9 -9t9 9v111l10 4q19 6 31 22.5t12 36.5q0 26 -18.5 44.5t-44 18.5z" />
    <glyph glyph-name="iconstar" unicode="&#xe61b;" horiz-adv-x="1034" 
d="M815 -98q-4 0 -8 2l-295 156l-296 -156q-8 -4 -16 1.5t-6 15.5l56 329l-239 233q-7 7 -4 16t13 10l330 48l148 300q4 9 14 9t14 -9l148 -300l330 -48q10 -1 13 -10t-4 -16l-239 -233l56 -329q2 -10 -6 -16q-4 -3 -9 -3zM512 93q4 0 7 -2l275 -144l-52 306q-2 8 4 13
l222 217l-307 45q-8 1 -12 8l-137 279l-137 -279q-4 -7 -12 -8l-307 -45l222 -217q6 -5 4 -13l-52 -306l275 144q3 2 7 2z" />
    <glyph glyph-name="icontwitter" unicode="&#xe61c;" 
d="M890 819h-754q-24 0 -41 -17t-17 -41v-754q0 -24 17 -41t41 -17h754q24 0 41 17t17 41v754q0 24 -17 41t-41 17zM721 491v-14q0 -54 -20.5 -107.5t-57.5 -98t-96.5 -72.5t-130.5 -28q-89 0 -164 49q12 -2 25 -2q75 0 133 46q-34 1 -61.5 21.5t-38.5 53.5q10 -2 20 -2
q15 0 29 3q-38 8 -62 37.5t-24 68.5v1q22 -13 48 -13q-48 32 -48 89q0 29 15 54q40 -50 97.5 -79.5t123.5 -32.5q-3 12 -3 24q0 45 31.5 76.5t76.5 31.5q46 0 78 -34q36 7 68 26q-12 -39 -47 -60q32 4 62 17q-22 -32 -54 -55z" />
    <glyph glyph-name="iconfacebook" unicode="&#xe61d;" 
d="M890 819h-754q-24 0 -41 -17t-17 -41v-754q0 -24 17 -41t41 -17h754q24 0 41 17t17 41v754q0 24 -17 41t-41 17zM627 472l-6 -78h-80v-271h-101v271h-54v78h54v53q0 58 17 81q30 39 84 39q30 0 54.5 -2.5t33.5 -4.5l9 -3l-14 -80q-22 7 -43 7q-40 0 -40 -29v-61h86z" />
    <glyph glyph-name="icongoogle" unicode="&#xe61e;" 
d="M504.5 522q-5.5 41 -31.5 70t-57 30t-49.5 -26.5t-13 -68.5t31.5 -71t57 -30.5t49.5 27.5t13 69zM477 313q-20 6 -41 6q-46 1 -81.5 -24t-35.5 -60q0 -36 30.5 -61t76.5 -25q117 0 117 84q0 8 -2 17q-1 5 -3.5 10t-6.5 10t-7 8t-10 8.5t-10.5 8t-13 9t-13.5 9.5zM890 819
h-754q-24 0 -41 -17t-17 -41v-754q0 -24 17 -41t41 -17h754q24 0 41 17t17 41v754q0 24 -17 41t-41 17zM426 123q-70 0 -118 26t-48 69q0 45 46.5 80.5t112.5 35.5q5 0 14.5 0.5t13.5 0.5q-22 21 -22 44q0 15 9 30h-15q-55 0 -89.5 34t-34.5 84q0 47 43 82.5t98 35.5h162
l-36 -26h-52q25 -10 38.5 -36t13.5 -57q0 -49 -45 -85q-19 -15 -25 -24t-6 -22q0 -10 14 -25t28 -25q32 -23 44.5 -46.5t12.5 -59.5q0 -46 -43 -81t-116 -35zM764 370h-63v-63h-51v63h-63v51h63v63h51v-63h63v-51z" />
    <glyph glyph-name="iconlinkedin" unicode="&#xe61f;" 
d="M890 819h-754q-24 0 -41 -17t-17 -41v-754q0 -24 17 -41t41 -17h754q24 0 41 17t17 41v754q0 24 -17 41t-41 17zM346 115h-116v370h116v-370zM285 531h-1q-30 0 -49.5 18.5t-19.5 45.5q0 28 20 46t51 18t50 -18t20 -46q0 -27 -19.5 -45.5t-51.5 -18.5zM809 115h-132v191
q0 39 -16 62t-49 23q-45 0 -63 -46q-3 -7 -3 -30v-200h-129q1 339 0 370h129v-58q7 22 38.5 41.5t77.5 19.5q65 0 106 -42.5t41 -124.5v-206z" />
    <glyph glyph-name="iconyoutube" unicode="&#xe620;" 
d="M305 323h34v-169h33v169h34v28h-101v-28zM580 301q-6 0 -13 -3t-13 -10v63h-29v-197h29v11q5 -7 13 -10q6 -3 15 -3q13 0 19.5 8t6.5 24v81q0 18 -7 27t-21 9zM578 188q0 -7 -2 -10t-8 -3q-3 0 -7 1q-3 2 -7 5v91q3 3 6 5q3 1 6 1q6 0 9 -4q3 -3 3 -11v-75zM507 463
q7 0 11 4t4 10v88q0 5 -4 8t-10.5 3t-9.5 -3q-4 -3 -4 -8v-88q0 -6 3 -10q4 -4 10 -4zM473 189q-4 -5 -9 -8q-4 -3 -8 -3t-6 2t-2 7v113h-29v-123q0 -13 5 -19q6 -7 16 -7q8 0 16 5q10 5 17 14v-16h30v146h-30v-111zM668 303q-19 0 -32 -12q-12 -12 -12 -31v-65
q0 -21 11 -33t31 -12q22 0 33 11t11 34v7h-31v-6q0 -14 -2 -17q-3 -4 -10 -4q-8 0 -10 5q-3 4 -3 16v27h56v37q0 21 -11 32t-31 11zM679 246h-25v15q0 9 3 13t10 4q6 0 10 -4q2 -4 2 -13v-15zM889 819h-754q-24 0 -41 -17t-17 -41v-754q0 -24 17 -41t41 -17h754q24 0 41 17
t17 41v754q0 24 -17 41t-41 17zM582 600h33v-123q0 -6 2 -8q2 -3 7 -3q3 0 9 3.5t10 8.5v122h33v-160h-33v17q-9 -9 -19 -15q-10 -5 -19 -5q-12 0 -17.5 7.5t-5.5 21.5v134zM460 563q0 19 13 30q14 11 36 11q21 0 34 -11.5t13 -30.5v-82q0 -21 -13 -33t-36 -12q-21 0 -34 13
q-13 12 -13 32v83zM371 657l23 -87h3l23 87h37l-42 -127v-90h-38v86l-44 131h38zM832 202q0 -38 -27 -64.5t-64 -26.5h-458q-37 0 -64 26.5t-27 64.5v93q0 38 27 65t64 27h458q37 0 64 -27t27 -65v-93z" />
    <glyph glyph-name="iconright1" unicode="&#xe621;" horiz-adv-x="1268" 
d="M63 568q0 6 4 10q9 10 20 0l421 -393l392 393q11 10 20.5 -0.5t-0.5 -20.5l-402 -402q-10 -9 -20 0l-431 402q-4 5 -4 11z" />
    <glyph glyph-name="icontalk2" unicode="&#xe622;" 
d="M834 -107q-6 0 -10 4l-278 272h-77q-6 0 -10.5 4.5t-4.5 11t4.5 11t10.5 4.5h83q6 0 11 -5l256 -250v239q0 7 4.5 11.5t10.5 4.5h92q19 0 32.5 13.5t13.5 32.5v430q0 19 -13.5 32.5t-32.5 13.5h-30q-7 0 -11.5 4.5t-4.5 10.5t4.5 10.5t11.5 4.5h30q32 0 54.5 -22.5
t22.5 -53.5v-430q0 -32 -22.5 -54.5t-54.5 -22.5h-76v-261q0 -10 -10 -14q-3 -1 -6 -1zM190 16q-4 0 -7 1q-9 4 -9 14v230h-76q-32 0 -54.5 22.5t-22.5 54.5v460q0 32 22.5 54.5t54.5 22.5h675q32 0 54.5 -22.5t22.5 -54.5v-460q0 -32 -22.5 -54.5t-54.5 -22.5h-295
l-278 -242q-5 -3 -10 -3zM98 844q-19 0 -32.5 -13.5t-13.5 -32.5v-460q0 -19 13.5 -32.5t32.5 -13.5h92q6 0 10.5 -4.5t4.5 -10.5v-212l257 223q4 4 10 4h301q19 0 32.5 13.5t13.5 32.5v460q0 19 -13.5 32.5t-32.5 13.5h-675zM435 568zM389 568q0 19 13.5 32.5t32.5 13.5
t32.5 -13.5t13.5 -32.5t-13.5 -32.5t-32.5 -13.5t-32.5 13.5t-13.5 32.5zM220 568zM174 568q0 19 13.5 32.5t32.5 13.5t32.5 -13.5t13.5 -32.5t-13.5 -32.5t-32.5 -13.5t-32.5 13.5t-13.5 32.5zM650 568zM604 568q0 19 13.5 32.5t32.5 13.5t32.5 -13.5t13.5 -32.5
t-13.5 -32.5t-32.5 -13.5t-32.5 13.5t-13.5 32.5z" />
    <glyph glyph-name="iconcheckcircle1" unicode="&#xe623;" 
d="M512 -107q-100 0 -191 38q-88 38 -156 106t-106 156q-38 91 -38 191t38 191q38 88 106 156t156 106q91 38 191 38t191 -38q88 -38 156 -106t106 -156q38 -91 38 -191t-38 -191q-38 -88 -106 -156t-156 -106q-91 -38 -191 -38zM512 844q-94 0 -179 -36
q-83 -35 -146.5 -98.5t-98.5 -146.5q-36 -85 -36 -179t36 -179q35 -83 98.5 -146.5t146.5 -98.5q85 -36 179 -36t179 36q83 35 146.5 98.5t98.5 146.5q36 85 36 179t-36 179q-35 83 -98.5 146.5t-146.5 98.5q-85 36 -179 36z" />
    <glyph glyph-name="iconcheck1" unicode="&#xe624;" 
d="M512 -107q-100 0 -191 38q-88 38 -156 106t-106 156q-38 91 -38 191t38 191q38 88 106 156t156 106q91 38 191 38t191 -38q88 -38 156 -106t106 -156q38 -91 38 -191t-38 -191q-38 -88 -106 -156t-156 -106q-91 -38 -191 -38zM512 844q-94 0 -179 -36
q-83 -35 -146.5 -98.5t-98.5 -146.5q-36 -85 -36 -179t36 -179q35 -83 98.5 -146.5t146.5 -98.5q85 -36 179 -36t179 36q83 35 146.5 98.5t98.5 146.5q36 85 36 179t-36 179q-35 83 -98.5 146.5t-146.5 98.5q-85 36 -179 36zM512 384zM291 384q0 92 64.5 156.5t156.5 64.5
t156.5 -64.5t64.5 -156.5t-64.5 -156.5t-156.5 -64.5t-156.5 64.5t-64.5 156.5zM512 148q-98 0 -167 69t-69 167t69 167t167 69t167 -69t69 -167t-69 -167t-167 -69zM512 590q-85 0 -145.5 -60.5t-60.5 -145.5t60.5 -145.5t145.5 -60.5t145.5 60.5t60.5 145.5t-60.5 145.5
t-145.5 60.5z" />
    <glyph glyph-name="iconadd1" unicode="&#xe625;" 
d="M804 369h-584q-6 0 -10.5 4.5t-4.5 10.5t4.5 10.5t10.5 4.5h584q6 0 10.5 -4.5t4.5 -10.5t-4.5 -10.5t-10.5 -4.5zM512 77q-6 0 -10.5 4.5t-4.5 10.5v584q0 6 4.5 10.5t10.5 4.5t10.5 -4.5t4.5 -10.5v-584q0 -6 -4.5 -10.5t-10.5 -4.5z" />
    <glyph glyph-name="iconless" unicode="&#xe626;" 
d="M804 369h-584q-6 0 -10.5 4.5t-4.5 10.5t4.5 10.5t10.5 4.5h584q6 0 10.5 -4.5t4.5 -10.5t-4.5 -10.5t-10.5 -4.5z" />
    <glyph glyph-name="iconnike" unicode="&#xe627;" 
d="M926 685l-507 -628q-5 -7 -14 -8h-2q-8 0 -14 5l-289 251q-6 6 -7 14.5t5 15t14.5 7.5t15.5 -5l272 -237l494 611q5 7 14 8t15.5 -4.5t7.5 -14t-5 -15.5z" />
    <glyph glyph-name="icondelete2" unicode="&#xe628;" 
d="M859 731q-70 71 -162 107.5t-185 36.5t-185 -36.5t-162.5 -107t-107 -162.5t-36.5 -185t36.5 -185t107 -162.5t162.5 -107t185 -36.5t185 36.5t162 107.5q95 94 128 220.5t0 253t-128 220.5zM710 169l-196 195l-195 -195q-11 -11 -22 0t0 22l195 195l-195 196
q-11 10 0 21t22 0l195 -195l196 195q10 11 21 0t0 -21l-195 -196l195 -195q11 -11 0 -22t-21 0z" />
    <glyph glyph-name="iconerror" unicode="&#xe629;" 
d="M68 -108q-6 0 -10 4q-7 7 -2 16q18 32 35 66q30 61 30 78q-48 59 -75 130q-28 74 -28 155q0 90 35 173q34 79 95.5 140.5t140.5 95.5q83 35 173.5 35t172.5 -35q80 -34 141.5 -95.5t94.5 -140.5q35 -83 35 -173.5t-35 -172.5q-33 -80 -94.5 -141.5t-141.5 -94.5
q-82 -35 -173 -35q-128 0 -236 68q-17 -1 -82 -34q-36 -19 -69 -38q-3 -1 -7 -1zM227 -8q8 0 13 -3q101 -64 222 -64q85 0 162 32q75 32 132.5 89.5t89.5 132.5q33 77 33 161.5t-33 162.5q-32 75 -89.5 132.5t-132.5 88.5q-77 33 -161.5 33t-162.5 -33q-74 -31 -132 -89
t-89 -132q-33 -78 -33 -162q0 -76 26 -146q25 -67 72 -123q10 -11 -2 -45q-7 -21 -24 -55q-7 -15 -16 -32q19 10 35 18q34 18 57 26q22 8 33 8zM462.5 202q-5.5 0 -10 4t-4.5 10v361q0 5 4.5 9.5t10 4.5t9.5 -4.5t4 -9.5v-361q0 -6 -4 -10t-9.5 -4zM823.5 680
q-5.5 0 -10.5 4q-9 10 0 20l77 76q10 10 19.5 0t0.5 -19l-77 -77q-4 -4 -9.5 -4zM887 616q-10 0 -13 10q-2 6 1 11t9 6l104 28q6 2 11 -1t6.5 -8.5t-1.5 -10.5t-9 -6l-104 -28q-2 -1 -4 -1zM759 744q-2 0 -3 1q-6 1 -9 6t-1 11l28 104q1 6 6 8.5t10.5 1t8.5 -6.5t2 -10
l-28 -105q-3 -10 -14 -10zM462 117zM435 117.5q0 11.5 8 19.5t19.5 8t19.5 -8t8 -19.5t-8 -19.5t-19.5 -8t-19.5 8t-8 19.5z" />
    <glyph glyph-name="icondownload" unicode="&#xe62b;" 
d="M988 -93h-952q-6 0 -10.5 4.5t-4.5 10.5v239q0 7 4.5 11.5t11 4.5t11 -4.5t4.5 -11.5v-224h920v224q0 7 4.5 11.5t11 4.5t11 -4.5t4.5 -11.5v-239q0 -6 -4.5 -10.5t-10.5 -4.5zM512 144q-6 0 -10.5 4.5t-4.5 11.5v686q0 6 4.5 10.5t10.5 4.5t10.5 -4.5t4.5 -10.5v-686
q0 -7 -4.5 -11.5t-10.5 -4.5zM511.5 122q-6.5 0 -11.5 4l-198 199q-11 11 -0.5 21.5t21.5 -0.5l188 -187l190 187q11 11 21.5 0t-0.5 -21l-200 -199q-4 -4 -10.5 -4z" />
    <glyph glyph-name="iconhelp" unicode="&#xe62d;" 
d="M512 -107q-100 0 -191 38q-88 38 -156 106t-106 156q-38 91 -38 191t38 191q38 88 106 156t156 106q91 38 191 38t191 -38q88 -38 156 -106t106 -156q38 -91 38 -191t-38 -191q-38 -88 -106 -156t-156 -106q-91 -38 -191 -38zM512 844q-94 0 -179 -36
q-83 -35 -146.5 -98.5t-98.5 -146.5q-36 -85 -36 -179t36 -179q35 -83 98.5 -146.5t146.5 -98.5q85 -36 179 -36t179 36q83 35 146.5 98.5t98.5 146.5q36 85 36 179t-36 179q-35 83 -98.5 146.5t-146.5 98.5q-85 36 -179 36zM512 108zM481 107.5q0 12.5 9 21.5t22 9t22 -9
t9 -21.5t-9 -21.5t-22 -9t-22 9t-9 21.5zM512 231q-13 0 -15 13v-1v3q0 7 5 12q4 3 10 3t10 -3q5 -5 5 -12v-3v1q-2 -13 -15 -13zM512 285l-15 41q0 3 1 6q7 16 54 63q25 25 38.5 39.5t29 36.5t15.5 36q0 47 -21 78q-30 45 -102 45q-66 0 -100 -57q-19 -29 -23 -59
q-1 -6 -6 -10t-11.5 -3t-10 6t-2.5 11q5 35 26 70q44 72 127 72q47 0 80 -16q30 -15 48 -42q25 -39 25 -95q0 -20 -15.5 -46t-31 -42.5t-44.5 -44.5q-43 -43 -48 -54h-1z" />
    <glyph glyph-name="iconlogin" unicode="&#xe62f;" 
d="M972 -46h-644q-7 0 -11.5 4.5t-4.5 11.5v227q0 6 4.5 10.5t11 4.5t11 -4.5t4.5 -10.5v-212h614v798h-614v-215q0 -6 -4.5 -10.5t-11 -4.5t-11 4.5t-4.5 10.5v230q0 7 4.5 11.5t11.5 4.5h644q7 0 11.5 -4.5t4.5 -11.5v-828q0 -7 -4.5 -11.5t-11.5 -4.5zM642 369h-590
q-7 0 -11.5 4.5t-4.5 11t4.5 11t11.5 4.5h590q6 0 10.5 -4.5t4.5 -11t-4.5 -11t-10.5 -4.5zM465.5 169q-6.5 0 -10.5 5q-11 11 0 21l188 188l-188 190q-11 11 0 21.5t22 -0.5l198 -200q11 -11 0 -22l-198 -198q-5 -5 -11.5 -5z" />
    <glyph glyph-name="iconsignout" unicode="&#xe630;" 
d="M972 -46h-583q-7 0 -11.5 4.5t-4.5 11.5v227q0 6 4.5 10.5t11 4.5t11 -4.5t4.5 -10.5v-212h553v798h-553v-215q0 -6 -4.5 -10.5t-11 -4.5t-11 4.5t-4.5 10.5v230q0 7 4.5 11.5t11.5 4.5h583q6 0 10.5 -4.5t4.5 -11.5v-828q0 -7 -4.5 -11.5t-10.5 -4.5zM665 369h-602
q-6 0 -10.5 4.5t-4.5 11t4.5 11t10.5 4.5h602q6 0 10.5 -4.5t4.5 -11t-4.5 -11t-10.5 -4.5zM250.5 169q-6.5 0 -10.5 5l-199 198q-11 11 0 22l199 200q10 11 21 0.5t0 -21.5l-187 -190l188 -188q10 -10 0 -21q-5 -5 -11.5 -5z" />
    <glyph glyph-name="iconcard" unicode="&#xe633;" 
d="M55 550h914v-119h-914v119zM907 38h-790q-29 0 -50.5 21t-21.5 50v550q0 29 21.5 50t50.5 21h790q29 0 50.5 -21t21.5 -50v-550q0 -29 -21.5 -50t-50.5 -21zM117 701q-17 0 -29.5 -12.5t-12.5 -29.5v-550q0 -17 12.5 -29.5t29.5 -12.5h790q17 0 29.5 12.5t12.5 29.5v550
q0 17 -12.5 29.5t-29.5 12.5h-790z" />
    <glyph glyph-name="iconleft" unicode="&#xe634;" 
d="M727 844q6 0 10 -4q12 -10 1 -21l-420 -450l420 -420q11 -11 -0.5 -21.5t-21.5 0.5l-430 430q-10 11 0 21l430 461q4 4 11 4z" />
    <glyph glyph-name="iconup" unicode="&#xe635;" 
d="M972 169q0 -6 -4 -10q-10 -12 -21 -1l-450 420l-420 -420q-11 -11 -21.5 0.5t0.5 21.5l430 430q11 10 21 0l461 -430q4 -4 4 -11z" />
    <glyph glyph-name="icononheart" unicode="&#xe60d;" 
d="M508.5 -14q-13.5 0 -23.5 9q-200 202 -349 351q-67 68 -81 151q-13 75 19.5 144.5t98.5 107.5q58 33 123 33q96 0 168 -68q21 -19 44 -19q18 0 33 10q14 8 30 20q35 24 51 32q50 25 105 25q92 0 161.5 -59.5t81.5 -149.5q17 -122 -70 -212q-83 -86 -301 -300
q-54 -52 -68 -66q-9 -9 -22.5 -9z" />
    <glyph glyph-name="iconshoppingbag" unicode="&#xe638;" 
d="M832 -51h-640q-6 0 -9.5 4t-3.5 9l26 845q0 5 3.5 8.5t8.5 3.5v0h589q5 0 8.5 -3.5t4.5 -9.5l26 -844q0 -5 -3.5 -9t-9.5 -4zM205 -25h614l-26 818h-563zM421 665v0h-101q-6 0 -9.5 4t-3.5 9t3.5 9t9.5 4v0h101q6 0 9.5 -4t3.5 -9t-3.5 -9t-9.5 -4zM704 666h-103
q-5 0 -8.5 3.5t-3.5 9t3.5 9t8.5 3.5h103q5 0 8.5 -3.5t3.5 -9t-3.5 -9t-8.5 -3.5zM511.5 487q-63.5 0 -108.5 45t-45 109v31q0 6 4 9.5t9 3.5t9 -3.5t4 -9.5v-31q0 -53 37 -91t90.5 -38t91 38t37.5 91v31q0 6 3.5 9.5t9 3.5t9 -3.5t3.5 -9.5v-31q0 -64 -45 -109t-108.5 -45
z" />
    <glyph glyph-name="icongoogle1" unicode="&#xe640;" 
d="M387 44q-66 0 -110 36.5t-44 88.5q0 50 51 86t119 36q30 -1 58 -10l19.5 -13t19 -13t15.5 -11.5t14.5 -12.5t10.5 -12t9 -14t5 -15q3 -12 3 -24q0 -56 -40.5 -89t-129.5 -33zM411 444q-45 1 -82.5 44t-45.5 102.5t18.5 99.5t71.5 38.5t82.5 -43.5t45.5 -101t-18.5 -100
t-71.5 -40zM536 327q-21 15 -41.5 36.5t-20.5 36.5q0 19 8.5 32t36.5 34q66 52 66 122q0 46 -20 84t-55 51h74l52 38h-234q-79 0 -141 -51.5t-62 -119.5q0 -72 49.5 -121t128.5 -49q12 0 22 1q-12 -23 -12 -44q0 -33 32 -64q-7 0 -20.5 -0.5t-20.5 -0.5q-95 0 -162.5 -51
t-67.5 -117q0 -62 69.5 -99.5t170.5 -37.5q105 0 167 50t62 118q0 52 -18 86t-63 66zM876 437h-91v91h-74v-91h-91v-73h91v-91h74v91h91v73z" />
    <glyph glyph-name="iconfacebook1" unicode="&#xe641;" 
d="M679 512l-9 -113h-116v-392h-146v392h-78v113h78v76q0 83 25 116q43 57 121 57q44 0 79 -3.5t48 -6.5l13 -4l-19 -115q-33 9 -63 9q-25 0 -41.5 -10t-16.5 -31v-88h125v0z" />
    <glyph glyph-name="iconemail" unicode="&#xe642;" 
d="M512 307l-377 224v-351q0 -27 20.5 -46t49.5 -19h614q29 0 49.5 19t20.5 46v351l-377 -224v0v0zM205 653q-27 0 -47 -16.5t-23 -41.5v-7l377 -223l377 223v8q-3 24 -23 40.5t-47 16.5h-614v0v0zM205 653z" />
    <glyph glyph-name="icontwitter1" unicode="&#xe643;" 
d="M812 538v-20q0 -62 -18 -124.5t-55 -119.5t-88.5 -100.5t-123.5 -70t-155 -26.5q-129 0 -237 70q18 -2 37 -2q107 0 192 66q-50 1 -90 31t-55 77q15 -3 29 -3q22 0 41 5q-53 11 -88.5 53.5t-35.5 98.5v2q33 -18 70 -19q-32 21 -50.5 55t-18.5 73q0 42 21 78
q59 -71 141.5 -114t177.5 -47q-4 16 -4 35q0 64 45.5 109.5t109.5 45.5q67 0 113 -49q52 10 98 37q-17 -55 -68 -85q47 5 89 24q-31 -47 -77 -80v0z" />
    <glyph glyph-name="iconair" unicode="&#xe62e;" 
d="M565 -42v0q-9 0 -12 9l-129 327l-330 150q-8 3 -8 12t9 12l824 341q9 3 15 -3.5t3 -14.5l-360 -825q-3 -8 -12 -8v0zM133 455l307 -139q5 -2 7 -7l119 -303l333 766zM434.5 291q-5.5 0 -9.5 4q-9 9 0 19l487 489q10 10 19.5 0.5t-0.5 -19.5l-487 -489q-4 -4 -9.5 -4z" />
    <glyph glyph-name="icontop" unicode="&#xe644;" 
d="M511.5 -31q-10.5 0 -18 7.5t-7.5 18.5v740q0 11 7.5 18.5t18 7.5t18 -7.5t7.5 -18.5v-740q0 -11 -7.5 -18.5t-18 -7.5zM847 414q-11 0 -18 7l-316 316l-318 -316q-8 -7 -18.5 -7t-18 7.5t-7.5 18t8 18.5l336 334q8 7 18.5 7t17.5 -7l334 -334q8 -8 8 -18.5t-7.5 -18
t-18.5 -7.5z" />
    <glyph glyph-name="iconpinterest" unicode="&#xe632;" 
d="M807 515q0 -131 -65.5 -216.5t-170.5 -85.5q-35 0 -65 16t-42 39q-26 -102 -31 -122q-17 -61 -79 -144q-2 -3 -6 -2t-5 5q-14 101 2 167q1 6 3.5 16t5.5 23t6.5 29t7.5 32.5t8 33.5t7.5 32.5t7 29t5.5 23.5t4 16l1 6q-14 28 -14 70q0 49 24.5 81.5t60.5 32.5
q28 0 43.5 -18.5t15.5 -47.5q0 -18 -6.5 -43.5t-17 -59.5t-15.5 -54q-8 -35 13 -60t56 -25q61 0 100 68.5t39 166.5q0 75 -48 122t-134 47q-97 0 -156.5 -62t-59.5 -149q0 -53 29 -87q10 -12 6 -25q-1 -4 -4.5 -17.5t-4.5 -17.5q-4 -18 -22 -11q-44 18 -66.5 63.5
t-22.5 105.5q0 48 20 96t57.5 88.5t99 65.5t136.5 25q121 0 199 -75.5t78 -177.5v0v0z" />
    <glyph glyph-name="iconyoutube2" unicode="&#xe645;" 
d="M730 261q-20 0 -20 -30v-20h39v20q0 30 -19 30zM584 261q-10 0 -20 -10v-132q10 -10 20 -10q17 0 17 30v92q0 30 -17 30zM549 683q-16 22 -46 22t-46 -22q-13 -17 -13 -52v-77q0 -35 13 -51q16 -23 46 -23t46 23q13 16 13 51v77q0 35 -13 52zM522 547q0 -31 -19 -31
t-19 31v92q0 30 19 30t19 -30v-92zM347 602v-119h44v119l53 175h-45l-30 -115l-31 115h-46q4 -12 13.5 -39.5t14.5 -42.5q21 -60 27 -93zM623 480q22 0 46 27v-24h40v219h-40v-167q-13 -19 -25 -19q-8 0 -10 10v15v161h-40v-173q0 -22 4 -32q6 -17 25 -17zM826 371
q-6 26 -25.5 43.5t-44.5 20.5q-81 9 -244 9t-243 -9q-26 -3 -45.5 -20.5t-25.5 -43.5q-11 -50 -11 -154t11 -154q6 -26 25.5 -43.5t44.5 -20.5q81 -9 244 -9t244 9q25 3 44.5 20.5t25.5 43.5q11 50 11 154q0 105 -11 154zM372 327h-47v-250h-43v250h-47v41h137v-41v0z
M491 76h-39v24q-23 -27 -45 -27q-20 0 -25 17q-4 10 -4 32v171h39v-159q0 -14 1 -16q1 -9 9 -9q12 0 25 19v165h39v-217v0zM640 142q0 -30 -4 -44q-7 -25 -31 -25q-21 0 -41 25v-21h-39v291h39v-95q19 23 41 23q24 0 31 -24q4 -13 4 -44v-86zM789 178h-79v-39q0 -30 20 -30
q14 0 18 16q1 4 1 27h40v-6q0 -15 -1 -25q-2 -14 -9 -24q-17 -24 -48 -24q-30 0 -47 23q-13 16 -13 51v76q0 35 12 51q17 22 47 22t47 -22q12 -16 12 -51v-45v0z" />
    <glyph glyph-name="iconblog" unicode="&#xe646;" 
d="M318 190q28 -27 28 -66t-28 -66v0q-27 -28 -66.5 -28t-67 27.5t-27.5 66.5t28 66v0q28 28 66.5 28t66.5 -28v0zM318 190v0v0v0v0zM185 58v0v0v0v0zM157 497v-135q138 0 235 -97t97 -235v0v-1h136q0 95 -36 180.5t-101 150.5t-150.5 101t-180.5 36v0zM158 739v-136
q116 0 222 -45.5t183 -122.5t122.5 -183t45.5 -223h136q0 144 -55 273.5t-153.5 228t-227.5 153.5t-273 55v0z" />
    <glyph glyph-name="icontime" unicode="&#xe647;" 
d="M512 719zM512 27q-73 0 -139 28q-64 28 -113 77t-77 113q-28 66 -28 139q0 74 30 142q28 65 80 115q6 6 15 6t15 -6.5t6 -15.5t-6 -15q-46 -44 -71 -101q-25 -60 -25 -125q0 -130 91.5 -221.5t221.5 -91.5t221.5 91.5t91.5 221.5t-92 221q-83 84 -200 92v-136
q0 -9 -6 -15t-15 -6t-15.5 6t-6.5 15v158q0 9 6.5 15.5t15.5 6.5q73 0 139 -28q64 -28 113 -77t77 -113q28 -67 28 -139.5t-28 -138.5q-28 -64 -77 -113.5t-113 -76.5q-67 -28 -139 -28zM518 328q-7 0 -13 4l-168 134q-7 6 -8.5 15t4.5 16t14.5 8t15.5 -5l169 -134
q7 -5 8 -14t-5 -16q-6 -8 -17 -8z" />
    <glyph glyph-name="iconmotif" unicode="&#xe648;" 
d="M520 419h136v-25h-53v-141h-30v141h-53v25zM708 419h29v-166h-29v166zM789 419h116v-25h-87v-44h76v-24h-76v-73h-29v166v0zM404.5 392q23.5 0 40.5 -16.5t17 -39.5t-17 -39.5t-40.5 -16.5t-40 16.5t-16.5 39.5t16.5 39.5t40 16.5zM405 419q-35 0 -60 -24.5t-25 -59
t25 -58.5t60 -24t59.5 24t24.5 58.5t-24.5 59t-59.5 24.5v0zM253 329h28v-76h-28v76zM244 419l-44 -49l-48 49h-33v-166h28v132l53 -55l81 89h-37zM722.5 448q-13.5 0 -23.5 10t-10 24t9.5 23.5t23.5 9.5t24 -9.5t10 -23.5t-10 -24t-23.5 -10zM722.5 495q-5.5 0 -9.5 -4
t-4 -9.5t4 -9.5t9 -4v0q6 0 10 4t4 9.5t-4 9.5t-9.5 4z" />
    <glyph glyph-name="iconsnapchat" unicode="&#xe649;" 
d="M520 773q68 1 122 -34.5t83 -97.5q14 -29 14 -91q0 -24 -5 -96q7 -4 14 -4q10 0 26.5 7t25.5 7q15 0 28.5 -9.5t13.5 -23.5q0 -16 -16 -27t-35 -16t-35 -15t-16 -24q0 -7 6 -22q19 -42 52 -76t74 -51q14 -6 40 -12q14 -3 14 -17q0 -36 -111 -52q-3 -6 -5 -20t-7 -23.5
t-17 -9.5q-10 0 -31.5 3t-32.5 3q-19 0 -31 -2q-17 -3 -32.5 -11.5t-29 -19t-29.5 -21t-38.5 -17t-50.5 -6.5q-26 0 -49 7q-22 7 -37.5 17t-29.5 20.5t-29.5 19t-31.5 11.5q-13 2 -32 2q-12 0 -33 -3.5t-30 -3.5q-12 0 -17 9.5t-7 24t-6 20.5q-111 16 -111 52q0 14 14 17
q27 6 41 12q39 16 73 51t52 76q6 14 6 22q0 14 -16 24t-35 15t-35 16t-16 27q0 13 13 22.5t28 9.5q8 0 24.5 -6.5t26.5 -6.5q9 0 16 4q-4 72 -4 96q0 62 13 91q33 70 88 101q54 30 133 31v0zM520 773z" />
    <glyph glyph-name="iconhome2" unicode="&#xe64a;" 
d="M858 -58h-659q-6 0 -10 4t-4 10v459q0 6 4 10.5t10 4.5t10 -4.5t4 -10.5v-444h630v444q0 6 4.5 10.5t10 4.5t10 -4.5t4.5 -10.5v-459q0 -6 -4.5 -10t-9.5 -4zM971 389q-6 0 -10 5l-433 431l-434 -431q-10 -11 -20 -0.5t0 20.5l443 441q11 10 21 0l443 -441q10 -10 0 -20
q-4 -5 -10 -5zM399 -55q-6 0 -10 4.5t-4 10.5v329q0 34 23 58.5t56 24.5h129q33 0 56 -24.5t23 -58.5v-329q0 -6 -4 -10.5t-10 -4.5t-10.5 4.5t-4.5 10.5v329q0 22 -14.5 38.5t-35.5 16.5h-129q-21 0 -36 -16.5t-15 -38.5v-329q0 -6 -4 -10.5t-10 -4.5z" />
    <glyph glyph-name="icon-car" unicode="&#xe696;" 
d="M598 197h-516q-6 0 -10 4.5t-4 10.5v516q0 6 4 10t10 4h516q6 0 10.5 -4t4.5 -10v-516q0 -6 -4.5 -10.5t-10.5 -4.5zM97 227h486v486h-486v-486zM942 197h-258q-6 0 -10.5 4.5t-4.5 10.5t4.5 10.5t10.5 4.5h243v211l-80 161h-120v-200h129q6 0 10.5 -4.5t4.5 -10.5
t-4.5 -10.5t-10.5 -4.5h-143q-6 0 -10.5 4.5t-4.5 10.5v229q0 6 4.5 10.5t10.5 4.5h143q9 0 13 -8l86 -172q2 -3 2 -7v-229q0 -6 -4.5 -10.5t-10.5 -4.5zM512 369h-344q-6 0 -10 4.5t-4 10.5t4 10.5t10 4.5h344q6 0 10.5 -4.5t4.5 -10.5t-4.5 -10.5t-10.5 -4.5zM827.5 25
q-41.5 0 -71 29.5t-29.5 71.5q0 6 4 10.5t10 4.5t10.5 -4.5t4.5 -10.5q0 -29 21 -50t50.5 -21t50 21t20.5 50q0 6 4.5 10.5t10.5 4.5t10.5 -4.5t4.5 -10.5q0 -41 -29.5 -71t-71 -30zM282.5 25q-41.5 0 -71 29.5t-29.5 71.5q0 6 4.5 10.5t10.5 4.5t10 -4.5t4 -10.5
q0 -29 21 -50t50.5 -21t50.5 21t21 50q0 6 4.5 10.5t10.5 4.5t10 -4.5t4 -10.5q0 -41 -29.5 -71t-71 -30z" />
    <glyph glyph-name="delete" unicode="&#xe697;" 
d="M770 -60h-516q-6 0 -10 4t-4 10v631q0 5 4 9.5t10 4.5t10 -4.5t4 -9.5v-617h488v617q0 5 4 9.5t10 4.5t10 -4.5t4 -9.5v-631q0 -6 -4 -10t-10 -4zM856 656h-688q-6 0 -10 4.5t-4 10t4 10t10 4.5h688q6 0 10 -4.5t4 -10t-4 -10t-10 -4.5zM627 656h-230q-6 0 -10 4.5
t-4 9.5v144q0 6 4 10t10 4h230q6 0 10 -4t4 -10v-144q0 -5 -4 -9.5t-10 -4.5zM412 685h200v114h-200v-114zM426 83q-6 0 -10 4.5t-4 9.5v402q0 5 4 9.5t10 4.5t10 -4.5t4 -9.5v-402q0 -5 -4 -9.5t-10 -4.5zM598 83q-6 0 -10 4.5t-4 9.5v402q0 5 4 9.5t10 4.5t10 -4.5t4 -9.5
v-402q0 -5 -4 -9.5t-10 -4.5z" />
    <glyph glyph-name="icon-facebook" unicode="&#xe698;" 
d="M542 -58h-423q-20 0 -34.5 14.5t-14.5 34.5v786q0 20 14.5 34.5t34.5 14.5h786q20 0 34.5 -14.5t14.5 -34.5v-786q0 -20 -14.5 -34.5t-34.5 -14.5h-225v342h115l17 134h-132v85q0 32 13.5 48.5t52.5 16.5h71v119q-40 6 -103 6q-78 0 -125 -46.5t-47 -130.5v-98h-115v-134
h115v-342z" />
    <glyph glyph-name="icon-pin" unicode="&#xe699;" 
d="M512 826q-90 0 -172 -35t-141 -94t-94 -141t-35 -172q0 -134 73 -243.5t192 -161.5q-3 59 7 102l57 240q-14 29 -14 70q0 49 25 82t60 33q29 0 44.5 -19t15.5 -48q0 -17 -6.5 -43t-17 -59.5t-15.5 -53.5q-8 -35 13 -60.5t57 -25.5q61 0 100.5 69t39.5 167
q0 74 -48.5 121.5t-135.5 47.5q-97 0 -157.5 -62.5t-60.5 -149.5q0 -52 29 -86q10 -12 7 -25q-1 -4 -4.5 -17.5t-4.5 -18.5q-5 -18 -22 -11q-45 19 -68 64.5t-23 104.5q0 49 20.5 97t58.5 88.5t100 65.5t137 25q61 0 114.5 -21t89 -56t56 -81t20.5 -95q0 -131 -66.5 -217
t-172.5 -86q-34 0 -65 16.5t-43 38.5q-25 -102 -31 -121q-12 -43 -44 -95q61 -18 125 -18q90 0 172 35t141 94t94 141t35 172t-35 172t-94 141t-141 94t-172 35v0z" />
    <glyph glyph-name="icon-ins" unicode="&#xe69a;" 
d="M512 826q-124 0 -182 -3q-62 -2 -108 -20q-44 -17 -78 -51t-51 -78q-18 -46 -20 -108q-3 -58 -3 -182t3 -182q2 -62 20 -108q17 -44 51 -77.5t78 -51.5q46 -18 108 -20q58 -3 182 -3t182 3q62 2 108 20q44 17 78 51t51 78q18 46 20 108q3 58 3 182t-3 182q-2 62 -20 108
q-17 44 -51 78t-78 51q-46 18 -108 20q-58 3 -182 3zM512 746q122 0 179 -2q48 -2 82 -15q29 -12 50.5 -33.5t33.5 -50.5q13 -34 15 -82q2 -57 2 -179t-2 -179q-2 -48 -15 -82q-12 -29 -33.5 -50.5t-50.5 -33.5q-34 -13 -82 -15q-57 -2 -179 -2t-179 2q-48 2 -82 15
q-29 12 -50.5 33.5t-33.5 50.5q-13 34 -15 82q-2 57 -2 179t2 179q2 48 15 82q12 29 33.5 50.5t50.5 33.5q34 13 82 15q57 2 179 2zM512 611q-94 0 -160.5 -66.5t-66.5 -160.5t66.5 -160.5t160.5 -66.5t160.5 66.5t66.5 160.5t-66.5 160.5t-160.5 66.5zM512 237
q-61 0 -104 43t-43 104t43 104t104 43t104 -43t43 -104t-43 -104t-104 -43zM801 620q0 -22 -15.5 -37.5t-37.5 -15.5t-37.5 15.5t-15.5 37.5t15.5 37.5t37.5 15.5t37.5 -15.5t15.5 -37.5z" />
    <glyph glyph-name="icon-heart" unicode="&#xe69b;" 
d="M524.5 57q-17.5 0 -30.5 12q-149 151 -287 289q-59 60 -72 133q-11 66 18 128t87 96q52 29 110 29q85 0 149 -60q13 -11 25 -11q10 0 19 5q8 5 23 16q30 21 45 28q44 23 94 23q81 0 142.5 -53.5t72.5 -132.5q8 -55 -7.5 -102t-54.5 -87q-69 -71 -248 -246
q-46 -45 -55 -55q-13 -12 -30.5 -12zM350 687q-43 0 -81 -22q-43 -25 -64.5 -70.5t-12.5 -94.5q9 -55 56 -101q127 -129 277 -279l45 45q178 174 247 245q58 60 46 141q-8 58 -53.5 97t-104.5 39q-36 0 -68 -16q-11 -6 -38 -24q-16 -11 -25 -17q-23 -15 -50 -15
q-35 0 -64 27q-48 45 -110 45z" />
    <glyph glyph-name="icon-shop" unicode="&#xe69c;" 
d="M796 250h-415l-119 480h-90v58h135l48 -194h570zM426 307h330l86 229h-473zM474 148q-24 0 -41 -17.5t-17 -41.5t17 -41t41 -17t41.5 17t17.5 41t-17.5 41.5t-41.5 17.5zM703 148q-24 0 -41 -17.5t-17 -41.5t17 -41t41 -17t41.5 17t17.5 41t-17.5 41.5t-41.5 17.5z" />
    <glyph glyph-name="icon-share" unicode="&#xe69d;" 
d="M479 122q-134 0 -229 94.5t-95 228.5t95 229t229 95t228.5 -95t94.5 -229t-94.5 -228.5t-228.5 -94.5zM478.5 712q-110.5 0 -188.5 -78t-78 -188.5t78 -188.5t188.5 -78t188.5 78t78 188.5t-78 188.5t-188.5 78zM871.5 26q-14.5 0 -24.5 10l-106 106q-10 10 -10 24.5
t10 25t24.5 10.5t24.5 -10l106 -106q10 -10 10 -24.5t-10 -25t-24.5 -10.5z" />
    <glyph glyph-name="icon-heart_" unicode="&#xe69e;" 
d="M539 53q-12 -13 -30 -13t-30 13q-126 126 -287 289q-59 59 -72 132q-12 67 17 128.5t88 95.5q51 30 109 30q86 0 150 -61q12 -11 25 -11q10 0 18 5l24 16q29 21 44 28q45 23 94 23q81 0 143 -53.5t73 -132.5q7 -55 -8.5 -102t-53.5 -87q-65 -67 -249 -246z" />
  </font>
</defs>
</svg>
